<mxfile host="app.diagrams.net" agent="Mozilla/5.0 (X11; Linux x86_64; rv:135.0) Gecko/20100101 Firefox/135.0" version="26.0.16">
  <diagram name="Page-1" id="KVKwArGCITVnjsDRMavE">
    <mxGraphModel dx="545" dy="343" grid="1" gridSize="10" guides="1" tooltips="1" connect="1" arrows="1" fold="1" page="1" pageScale="1" pageWidth="1920" pageHeight="1200" math="0" shadow="0">
      <root>
        <mxCell id="0" />
        <mxCell id="1" parent="0" />
        <mxCell id="Ly05P1Po30x_rFeiM2-j-277" value="" style="group" vertex="1" connectable="0" parent="1">
          <mxGeometry x="110" y="372" width="150" height="132" as="geometry" />
        </mxCell>
        <mxCell id="Ly05P1Po30x_rFeiM2-j-278" value="" style="group" vertex="1" connectable="0" parent="Ly05P1Po30x_rFeiM2-j-277">
          <mxGeometry y="32" width="150" height="70" as="geometry" />
        </mxCell>
        <mxCell id="Ly05P1Po30x_rFeiM2-j-279" value="" style="rounded=0;whiteSpace=wrap;html=1;" vertex="1" parent="Ly05P1Po30x_rFeiM2-j-278">
          <mxGeometry width="150" height="70" as="geometry" />
        </mxCell>
        <mxCell id="Ly05P1Po30x_rFeiM2-j-280" value="" style="rounded=0;whiteSpace=wrap;html=1;" vertex="1" parent="Ly05P1Po30x_rFeiM2-j-278">
          <mxGeometry width="150" height="35" as="geometry" />
        </mxCell>
        <mxCell id="Ly05P1Po30x_rFeiM2-j-281" value="" style="rounded=0;whiteSpace=wrap;html=1;" vertex="1" parent="Ly05P1Po30x_rFeiM2-j-278">
          <mxGeometry y="35" width="53.225806451612904" height="35" as="geometry" />
        </mxCell>
        <mxCell id="Ly05P1Po30x_rFeiM2-j-282" value="" style="rounded=0;whiteSpace=wrap;html=1;" vertex="1" parent="Ly05P1Po30x_rFeiM2-j-278">
          <mxGeometry x="48.38709677419355" y="35" width="53.225806451612904" height="35" as="geometry" />
        </mxCell>
        <mxCell id="Ly05P1Po30x_rFeiM2-j-283" value="Vorgang" style="text;html=1;align=center;verticalAlign=middle;resizable=0;points=[];autosize=1;strokeColor=none;fillColor=none;" vertex="1" parent="Ly05P1Po30x_rFeiM2-j-278">
          <mxGeometry x="45" y="2.5" width="60" height="30" as="geometry" />
        </mxCell>
        <mxCell id="Ly05P1Po30x_rFeiM2-j-284" value="Dauer" style="text;html=1;align=center;verticalAlign=middle;resizable=0;points=[];autosize=1;strokeColor=none;fillColor=none;" vertex="1" parent="Ly05P1Po30x_rFeiM2-j-278">
          <mxGeometry x="-1.6100000000000136" y="37.5" width="50" height="30" as="geometry" />
        </mxCell>
        <mxCell id="Ly05P1Po30x_rFeiM2-j-285" value="GP" style="text;html=1;align=center;verticalAlign=middle;resizable=0;points=[];autosize=1;strokeColor=none;fillColor=none;" vertex="1" parent="Ly05P1Po30x_rFeiM2-j-278">
          <mxGeometry x="54.99999999999999" y="37.5" width="40" height="30" as="geometry" />
        </mxCell>
        <mxCell id="Ly05P1Po30x_rFeiM2-j-286" value="FP" style="text;html=1;align=center;verticalAlign=middle;resizable=0;points=[];autosize=1;strokeColor=none;fillColor=none;" vertex="1" parent="Ly05P1Po30x_rFeiM2-j-278">
          <mxGeometry x="105" y="37.5" width="40" height="30" as="geometry" />
        </mxCell>
        <mxCell id="Ly05P1Po30x_rFeiM2-j-287" value="FAZ" style="text;html=1;align=center;verticalAlign=middle;resizable=0;points=[];autosize=1;strokeColor=none;fillColor=none;" vertex="1" parent="Ly05P1Po30x_rFeiM2-j-277">
          <mxGeometry width="50" height="30" as="geometry" />
        </mxCell>
        <mxCell id="Ly05P1Po30x_rFeiM2-j-288" value="FEZ" style="text;html=1;align=center;verticalAlign=middle;resizable=0;points=[];autosize=1;strokeColor=none;fillColor=none;" vertex="1" parent="Ly05P1Po30x_rFeiM2-j-277">
          <mxGeometry x="110" width="40" height="30" as="geometry" />
        </mxCell>
        <mxCell id="Ly05P1Po30x_rFeiM2-j-289" value="SAZ" style="text;html=1;align=center;verticalAlign=middle;resizable=0;points=[];autosize=1;strokeColor=none;fillColor=none;" vertex="1" parent="Ly05P1Po30x_rFeiM2-j-277">
          <mxGeometry y="102" width="50" height="30" as="geometry" />
        </mxCell>
        <mxCell id="Ly05P1Po30x_rFeiM2-j-290" value="SEZ" style="text;html=1;align=center;verticalAlign=middle;resizable=0;points=[];autosize=1;strokeColor=none;fillColor=none;" vertex="1" parent="Ly05P1Po30x_rFeiM2-j-277">
          <mxGeometry x="110" y="102" width="40" height="30" as="geometry" />
        </mxCell>
        <mxCell id="Ly05P1Po30x_rFeiM2-j-291" value="" style="group" vertex="1" connectable="0" parent="1">
          <mxGeometry x="120" y="592" width="150" height="132" as="geometry" />
        </mxCell>
        <mxCell id="Ly05P1Po30x_rFeiM2-j-292" value="" style="group" vertex="1" connectable="0" parent="Ly05P1Po30x_rFeiM2-j-291">
          <mxGeometry y="32" width="150" height="70" as="geometry" />
        </mxCell>
        <mxCell id="Ly05P1Po30x_rFeiM2-j-293" value="" style="rounded=0;whiteSpace=wrap;html=1;" vertex="1" parent="Ly05P1Po30x_rFeiM2-j-292">
          <mxGeometry width="150" height="70" as="geometry" />
        </mxCell>
        <mxCell id="Ly05P1Po30x_rFeiM2-j-294" value="" style="rounded=0;whiteSpace=wrap;html=1;" vertex="1" parent="Ly05P1Po30x_rFeiM2-j-292">
          <mxGeometry width="150" height="35" as="geometry" />
        </mxCell>
        <mxCell id="Ly05P1Po30x_rFeiM2-j-295" value="" style="rounded=0;whiteSpace=wrap;html=1;" vertex="1" parent="Ly05P1Po30x_rFeiM2-j-292">
          <mxGeometry y="35" width="53.225806451612904" height="35" as="geometry" />
        </mxCell>
        <mxCell id="Ly05P1Po30x_rFeiM2-j-296" value="" style="rounded=0;whiteSpace=wrap;html=1;" vertex="1" parent="Ly05P1Po30x_rFeiM2-j-292">
          <mxGeometry x="48.38709677419355" y="35" width="53.225806451612904" height="35" as="geometry" />
        </mxCell>
        <mxCell id="Ly05P1Po30x_rFeiM2-j-297" value="A" style="text;html=1;align=center;verticalAlign=middle;resizable=0;points=[];autosize=1;strokeColor=none;fillColor=none;" vertex="1" parent="Ly05P1Po30x_rFeiM2-j-292">
          <mxGeometry x="60" y="2.5" width="30" height="30" as="geometry" />
        </mxCell>
        <mxCell id="Ly05P1Po30x_rFeiM2-j-298" value="2" style="text;html=1;align=center;verticalAlign=middle;resizable=0;points=[];autosize=1;strokeColor=none;fillColor=none;" vertex="1" parent="Ly05P1Po30x_rFeiM2-j-292">
          <mxGeometry x="8.389999999999986" y="37.5" width="30" height="30" as="geometry" />
        </mxCell>
        <mxCell id="Ly05P1Po30x_rFeiM2-j-299" value="0" style="text;html=1;align=center;verticalAlign=middle;resizable=0;points=[];autosize=1;strokeColor=none;fillColor=none;" vertex="1" parent="Ly05P1Po30x_rFeiM2-j-292">
          <mxGeometry x="59.99999999999999" y="37.5" width="30" height="30" as="geometry" />
        </mxCell>
        <mxCell id="Ly05P1Po30x_rFeiM2-j-300" value="0" style="text;html=1;align=center;verticalAlign=middle;resizable=0;points=[];autosize=1;strokeColor=none;fillColor=none;" vertex="1" parent="Ly05P1Po30x_rFeiM2-j-292">
          <mxGeometry x="110" y="37.5" width="30" height="30" as="geometry" />
        </mxCell>
        <mxCell id="Ly05P1Po30x_rFeiM2-j-301" value="0" style="text;html=1;align=center;verticalAlign=middle;resizable=0;points=[];autosize=1;strokeColor=none;fillColor=none;" vertex="1" parent="Ly05P1Po30x_rFeiM2-j-291">
          <mxGeometry x="10" width="30" height="30" as="geometry" />
        </mxCell>
        <mxCell id="Ly05P1Po30x_rFeiM2-j-302" value="2" style="text;html=1;align=center;verticalAlign=middle;resizable=0;points=[];autosize=1;strokeColor=none;fillColor=none;" vertex="1" parent="Ly05P1Po30x_rFeiM2-j-291">
          <mxGeometry x="115" width="30" height="30" as="geometry" />
        </mxCell>
        <mxCell id="Ly05P1Po30x_rFeiM2-j-303" value="0" style="text;html=1;align=center;verticalAlign=middle;resizable=0;points=[];autosize=1;strokeColor=none;fillColor=none;" vertex="1" parent="Ly05P1Po30x_rFeiM2-j-291">
          <mxGeometry x="10" y="102" width="30" height="30" as="geometry" />
        </mxCell>
        <mxCell id="Ly05P1Po30x_rFeiM2-j-304" value="2" style="text;html=1;align=center;verticalAlign=middle;resizable=0;points=[];autosize=1;strokeColor=none;fillColor=none;" vertex="1" parent="Ly05P1Po30x_rFeiM2-j-291">
          <mxGeometry x="115" y="102" width="30" height="30" as="geometry" />
        </mxCell>
        <mxCell id="Ly05P1Po30x_rFeiM2-j-305" value="" style="group" vertex="1" connectable="0" parent="1">
          <mxGeometry x="320" y="592" width="150" height="132" as="geometry" />
        </mxCell>
        <mxCell id="Ly05P1Po30x_rFeiM2-j-306" value="" style="group" vertex="1" connectable="0" parent="Ly05P1Po30x_rFeiM2-j-305">
          <mxGeometry y="32" width="150" height="70" as="geometry" />
        </mxCell>
        <mxCell id="Ly05P1Po30x_rFeiM2-j-307" value="" style="rounded=0;whiteSpace=wrap;html=1;" vertex="1" parent="Ly05P1Po30x_rFeiM2-j-306">
          <mxGeometry width="150" height="70" as="geometry" />
        </mxCell>
        <mxCell id="Ly05P1Po30x_rFeiM2-j-308" value="" style="rounded=0;whiteSpace=wrap;html=1;" vertex="1" parent="Ly05P1Po30x_rFeiM2-j-306">
          <mxGeometry width="150" height="35" as="geometry" />
        </mxCell>
        <mxCell id="Ly05P1Po30x_rFeiM2-j-309" value="" style="rounded=0;whiteSpace=wrap;html=1;" vertex="1" parent="Ly05P1Po30x_rFeiM2-j-306">
          <mxGeometry y="35" width="53.225806451612904" height="35" as="geometry" />
        </mxCell>
        <mxCell id="Ly05P1Po30x_rFeiM2-j-310" value="" style="rounded=0;whiteSpace=wrap;html=1;" vertex="1" parent="Ly05P1Po30x_rFeiM2-j-306">
          <mxGeometry x="48.38709677419355" y="35" width="53.225806451612904" height="35" as="geometry" />
        </mxCell>
        <mxCell id="Ly05P1Po30x_rFeiM2-j-311" value="B" style="text;html=1;align=center;verticalAlign=middle;resizable=0;points=[];autosize=1;strokeColor=none;fillColor=none;" vertex="1" parent="Ly05P1Po30x_rFeiM2-j-306">
          <mxGeometry x="60" y="2.5" width="30" height="30" as="geometry" />
        </mxCell>
        <mxCell id="Ly05P1Po30x_rFeiM2-j-312" value="Dauer" style="text;html=1;align=center;verticalAlign=middle;resizable=0;points=[];autosize=1;strokeColor=none;fillColor=none;" vertex="1" parent="Ly05P1Po30x_rFeiM2-j-306">
          <mxGeometry x="-1.6100000000000136" y="37.5" width="50" height="30" as="geometry" />
        </mxCell>
        <mxCell id="Ly05P1Po30x_rFeiM2-j-313" value="GP" style="text;html=1;align=center;verticalAlign=middle;resizable=0;points=[];autosize=1;strokeColor=none;fillColor=none;" vertex="1" parent="Ly05P1Po30x_rFeiM2-j-306">
          <mxGeometry x="54.99999999999999" y="37.5" width="40" height="30" as="geometry" />
        </mxCell>
        <mxCell id="Ly05P1Po30x_rFeiM2-j-314" value="FP" style="text;html=1;align=center;verticalAlign=middle;resizable=0;points=[];autosize=1;strokeColor=none;fillColor=none;" vertex="1" parent="Ly05P1Po30x_rFeiM2-j-306">
          <mxGeometry x="105" y="37.5" width="40" height="30" as="geometry" />
        </mxCell>
        <mxCell id="Ly05P1Po30x_rFeiM2-j-315" value="2" style="text;html=1;align=center;verticalAlign=middle;resizable=0;points=[];autosize=1;strokeColor=none;fillColor=none;" vertex="1" parent="Ly05P1Po30x_rFeiM2-j-305">
          <mxGeometry x="10" width="30" height="30" as="geometry" />
        </mxCell>
        <mxCell id="Ly05P1Po30x_rFeiM2-j-316" value="6" style="text;html=1;align=center;verticalAlign=middle;resizable=0;points=[];autosize=1;strokeColor=none;fillColor=none;" vertex="1" parent="Ly05P1Po30x_rFeiM2-j-305">
          <mxGeometry x="115" width="30" height="30" as="geometry" />
        </mxCell>
        <mxCell id="Ly05P1Po30x_rFeiM2-j-317" value="2" style="text;html=1;align=center;verticalAlign=middle;resizable=0;points=[];autosize=1;strokeColor=none;fillColor=none;" vertex="1" parent="Ly05P1Po30x_rFeiM2-j-305">
          <mxGeometry x="10" y="102" width="30" height="30" as="geometry" />
        </mxCell>
        <mxCell id="Ly05P1Po30x_rFeiM2-j-318" value="6" style="text;html=1;align=center;verticalAlign=middle;resizable=0;points=[];autosize=1;strokeColor=none;fillColor=none;" vertex="1" parent="Ly05P1Po30x_rFeiM2-j-305">
          <mxGeometry x="115" y="102" width="30" height="30" as="geometry" />
        </mxCell>
        <mxCell id="Ly05P1Po30x_rFeiM2-j-319" style="edgeStyle=orthogonalEdgeStyle;rounded=0;orthogonalLoop=1;jettySize=auto;html=1;exitX=1;exitY=1;exitDx=0;exitDy=0;entryX=0;entryY=0;entryDx=0;entryDy=0;" edge="1" parent="1" target="Ly05P1Po30x_rFeiM2-j-309">
          <mxGeometry relative="1" as="geometry">
            <mxPoint x="269.99999999999994" y="657.5" as="sourcePoint" />
            <mxPoint x="320" y="657.5" as="targetPoint" />
            <Array as="points">
              <mxPoint x="270" y="659" />
              <mxPoint x="310" y="659" />
            </Array>
          </mxGeometry>
        </mxCell>
        <mxCell id="Ly05P1Po30x_rFeiM2-j-320" value="" style="group" vertex="1" connectable="0" parent="1">
          <mxGeometry x="520" y="592" width="150" height="132" as="geometry" />
        </mxCell>
        <mxCell id="Ly05P1Po30x_rFeiM2-j-321" value="" style="group" vertex="1" connectable="0" parent="Ly05P1Po30x_rFeiM2-j-320">
          <mxGeometry y="32" width="150" height="70" as="geometry" />
        </mxCell>
        <mxCell id="Ly05P1Po30x_rFeiM2-j-322" value="" style="rounded=0;whiteSpace=wrap;html=1;" vertex="1" parent="Ly05P1Po30x_rFeiM2-j-321">
          <mxGeometry width="150" height="70" as="geometry" />
        </mxCell>
        <mxCell id="Ly05P1Po30x_rFeiM2-j-323" value="" style="rounded=0;whiteSpace=wrap;html=1;" vertex="1" parent="Ly05P1Po30x_rFeiM2-j-321">
          <mxGeometry width="150" height="35" as="geometry" />
        </mxCell>
        <mxCell id="Ly05P1Po30x_rFeiM2-j-324" value="" style="rounded=0;whiteSpace=wrap;html=1;" vertex="1" parent="Ly05P1Po30x_rFeiM2-j-321">
          <mxGeometry y="35" width="53.225806451612904" height="35" as="geometry" />
        </mxCell>
        <mxCell id="Ly05P1Po30x_rFeiM2-j-325" value="" style="rounded=0;whiteSpace=wrap;html=1;" vertex="1" parent="Ly05P1Po30x_rFeiM2-j-321">
          <mxGeometry x="48.38709677419355" y="35" width="53.225806451612904" height="35" as="geometry" />
        </mxCell>
        <mxCell id="Ly05P1Po30x_rFeiM2-j-326" value="Vorgang" style="text;html=1;align=center;verticalAlign=middle;resizable=0;points=[];autosize=1;strokeColor=none;fillColor=none;" vertex="1" parent="Ly05P1Po30x_rFeiM2-j-321">
          <mxGeometry x="45" y="2.5" width="60" height="30" as="geometry" />
        </mxCell>
        <mxCell id="Ly05P1Po30x_rFeiM2-j-327" value="Dauer" style="text;html=1;align=center;verticalAlign=middle;resizable=0;points=[];autosize=1;strokeColor=none;fillColor=none;" vertex="1" parent="Ly05P1Po30x_rFeiM2-j-321">
          <mxGeometry x="-1.6100000000000136" y="37.5" width="50" height="30" as="geometry" />
        </mxCell>
        <mxCell id="Ly05P1Po30x_rFeiM2-j-328" value="GP" style="text;html=1;align=center;verticalAlign=middle;resizable=0;points=[];autosize=1;strokeColor=none;fillColor=none;" vertex="1" parent="Ly05P1Po30x_rFeiM2-j-321">
          <mxGeometry x="54.99999999999999" y="37.5" width="40" height="30" as="geometry" />
        </mxCell>
        <mxCell id="Ly05P1Po30x_rFeiM2-j-329" value="FP" style="text;html=1;align=center;verticalAlign=middle;resizable=0;points=[];autosize=1;strokeColor=none;fillColor=none;" vertex="1" parent="Ly05P1Po30x_rFeiM2-j-321">
          <mxGeometry x="105" y="37.5" width="40" height="30" as="geometry" />
        </mxCell>
        <mxCell id="Ly05P1Po30x_rFeiM2-j-330" value="FAZ" style="text;html=1;align=center;verticalAlign=middle;resizable=0;points=[];autosize=1;strokeColor=none;fillColor=none;" vertex="1" parent="Ly05P1Po30x_rFeiM2-j-320">
          <mxGeometry width="50" height="30" as="geometry" />
        </mxCell>
        <mxCell id="Ly05P1Po30x_rFeiM2-j-331" value="FEZ" style="text;html=1;align=center;verticalAlign=middle;resizable=0;points=[];autosize=1;strokeColor=none;fillColor=none;" vertex="1" parent="Ly05P1Po30x_rFeiM2-j-320">
          <mxGeometry x="110" width="40" height="30" as="geometry" />
        </mxCell>
        <mxCell id="Ly05P1Po30x_rFeiM2-j-332" value="SAZ" style="text;html=1;align=center;verticalAlign=middle;resizable=0;points=[];autosize=1;strokeColor=none;fillColor=none;" vertex="1" parent="Ly05P1Po30x_rFeiM2-j-320">
          <mxGeometry y="102" width="50" height="30" as="geometry" />
        </mxCell>
        <mxCell id="Ly05P1Po30x_rFeiM2-j-333" value="SEZ" style="text;html=1;align=center;verticalAlign=middle;resizable=0;points=[];autosize=1;strokeColor=none;fillColor=none;" vertex="1" parent="Ly05P1Po30x_rFeiM2-j-320">
          <mxGeometry x="110" y="102" width="40" height="30" as="geometry" />
        </mxCell>
        <mxCell id="Ly05P1Po30x_rFeiM2-j-334" value="" style="group" vertex="1" connectable="0" parent="1">
          <mxGeometry x="520" y="462" width="150" height="132" as="geometry" />
        </mxCell>
        <mxCell id="Ly05P1Po30x_rFeiM2-j-335" value="" style="group" vertex="1" connectable="0" parent="Ly05P1Po30x_rFeiM2-j-334">
          <mxGeometry y="32" width="150" height="70" as="geometry" />
        </mxCell>
        <mxCell id="Ly05P1Po30x_rFeiM2-j-336" value="" style="rounded=0;whiteSpace=wrap;html=1;" vertex="1" parent="Ly05P1Po30x_rFeiM2-j-335">
          <mxGeometry width="150" height="70" as="geometry" />
        </mxCell>
        <mxCell id="Ly05P1Po30x_rFeiM2-j-337" value="" style="rounded=0;whiteSpace=wrap;html=1;" vertex="1" parent="Ly05P1Po30x_rFeiM2-j-335">
          <mxGeometry width="150" height="35" as="geometry" />
        </mxCell>
        <mxCell id="Ly05P1Po30x_rFeiM2-j-338" value="" style="rounded=0;whiteSpace=wrap;html=1;" vertex="1" parent="Ly05P1Po30x_rFeiM2-j-335">
          <mxGeometry y="35" width="53.225806451612904" height="35" as="geometry" />
        </mxCell>
        <mxCell id="Ly05P1Po30x_rFeiM2-j-339" value="" style="rounded=0;whiteSpace=wrap;html=1;" vertex="1" parent="Ly05P1Po30x_rFeiM2-j-335">
          <mxGeometry x="48.38709677419355" y="35" width="53.225806451612904" height="35" as="geometry" />
        </mxCell>
        <mxCell id="Ly05P1Po30x_rFeiM2-j-340" value="Vorgang" style="text;html=1;align=center;verticalAlign=middle;resizable=0;points=[];autosize=1;strokeColor=none;fillColor=none;" vertex="1" parent="Ly05P1Po30x_rFeiM2-j-335">
          <mxGeometry x="45" y="2.5" width="60" height="30" as="geometry" />
        </mxCell>
        <mxCell id="Ly05P1Po30x_rFeiM2-j-341" value="Dauer" style="text;html=1;align=center;verticalAlign=middle;resizable=0;points=[];autosize=1;strokeColor=none;fillColor=none;" vertex="1" parent="Ly05P1Po30x_rFeiM2-j-335">
          <mxGeometry x="-1.6100000000000136" y="37.5" width="50" height="30" as="geometry" />
        </mxCell>
        <mxCell id="Ly05P1Po30x_rFeiM2-j-342" value="GP" style="text;html=1;align=center;verticalAlign=middle;resizable=0;points=[];autosize=1;strokeColor=none;fillColor=none;" vertex="1" parent="Ly05P1Po30x_rFeiM2-j-335">
          <mxGeometry x="54.99999999999999" y="37.5" width="40" height="30" as="geometry" />
        </mxCell>
        <mxCell id="Ly05P1Po30x_rFeiM2-j-343" value="FP" style="text;html=1;align=center;verticalAlign=middle;resizable=0;points=[];autosize=1;strokeColor=none;fillColor=none;" vertex="1" parent="Ly05P1Po30x_rFeiM2-j-335">
          <mxGeometry x="105" y="37.5" width="40" height="30" as="geometry" />
        </mxCell>
        <mxCell id="Ly05P1Po30x_rFeiM2-j-344" value="FAZ" style="text;html=1;align=center;verticalAlign=middle;resizable=0;points=[];autosize=1;strokeColor=none;fillColor=none;" vertex="1" parent="Ly05P1Po30x_rFeiM2-j-334">
          <mxGeometry width="50" height="30" as="geometry" />
        </mxCell>
        <mxCell id="Ly05P1Po30x_rFeiM2-j-345" value="FEZ" style="text;html=1;align=center;verticalAlign=middle;resizable=0;points=[];autosize=1;strokeColor=none;fillColor=none;" vertex="1" parent="Ly05P1Po30x_rFeiM2-j-334">
          <mxGeometry x="110" width="40" height="30" as="geometry" />
        </mxCell>
        <mxCell id="Ly05P1Po30x_rFeiM2-j-346" value="SAZ" style="text;html=1;align=center;verticalAlign=middle;resizable=0;points=[];autosize=1;strokeColor=none;fillColor=none;" vertex="1" parent="Ly05P1Po30x_rFeiM2-j-334">
          <mxGeometry y="102" width="50" height="30" as="geometry" />
        </mxCell>
        <mxCell id="Ly05P1Po30x_rFeiM2-j-347" value="SEZ" style="text;html=1;align=center;verticalAlign=middle;resizable=0;points=[];autosize=1;strokeColor=none;fillColor=none;" vertex="1" parent="Ly05P1Po30x_rFeiM2-j-334">
          <mxGeometry x="110" y="102" width="40" height="30" as="geometry" />
        </mxCell>
        <mxCell id="Ly05P1Po30x_rFeiM2-j-362" value="" style="group" vertex="1" connectable="0" parent="1">
          <mxGeometry x="520" y="722" width="150" height="132" as="geometry" />
        </mxCell>
        <mxCell id="Ly05P1Po30x_rFeiM2-j-363" value="" style="group" vertex="1" connectable="0" parent="Ly05P1Po30x_rFeiM2-j-362">
          <mxGeometry y="32" width="150" height="70" as="geometry" />
        </mxCell>
        <mxCell id="Ly05P1Po30x_rFeiM2-j-364" value="" style="rounded=0;whiteSpace=wrap;html=1;" vertex="1" parent="Ly05P1Po30x_rFeiM2-j-363">
          <mxGeometry width="150" height="70" as="geometry" />
        </mxCell>
        <mxCell id="Ly05P1Po30x_rFeiM2-j-365" value="" style="rounded=0;whiteSpace=wrap;html=1;" vertex="1" parent="Ly05P1Po30x_rFeiM2-j-363">
          <mxGeometry width="150" height="35" as="geometry" />
        </mxCell>
        <mxCell id="Ly05P1Po30x_rFeiM2-j-366" value="" style="rounded=0;whiteSpace=wrap;html=1;" vertex="1" parent="Ly05P1Po30x_rFeiM2-j-363">
          <mxGeometry y="35" width="53.225806451612904" height="35" as="geometry" />
        </mxCell>
        <mxCell id="Ly05P1Po30x_rFeiM2-j-367" value="" style="rounded=0;whiteSpace=wrap;html=1;" vertex="1" parent="Ly05P1Po30x_rFeiM2-j-363">
          <mxGeometry x="48.38709677419355" y="35" width="53.225806451612904" height="35" as="geometry" />
        </mxCell>
        <mxCell id="Ly05P1Po30x_rFeiM2-j-368" value="Vorgang" style="text;html=1;align=center;verticalAlign=middle;resizable=0;points=[];autosize=1;strokeColor=none;fillColor=none;" vertex="1" parent="Ly05P1Po30x_rFeiM2-j-363">
          <mxGeometry x="45" y="2.5" width="60" height="30" as="geometry" />
        </mxCell>
        <mxCell id="Ly05P1Po30x_rFeiM2-j-369" value="Dauer" style="text;html=1;align=center;verticalAlign=middle;resizable=0;points=[];autosize=1;strokeColor=none;fillColor=none;" vertex="1" parent="Ly05P1Po30x_rFeiM2-j-363">
          <mxGeometry x="-1.6100000000000136" y="37.5" width="50" height="30" as="geometry" />
        </mxCell>
        <mxCell id="Ly05P1Po30x_rFeiM2-j-370" value="GP" style="text;html=1;align=center;verticalAlign=middle;resizable=0;points=[];autosize=1;strokeColor=none;fillColor=none;" vertex="1" parent="Ly05P1Po30x_rFeiM2-j-363">
          <mxGeometry x="54.99999999999999" y="37.5" width="40" height="30" as="geometry" />
        </mxCell>
        <mxCell id="Ly05P1Po30x_rFeiM2-j-371" value="FP" style="text;html=1;align=center;verticalAlign=middle;resizable=0;points=[];autosize=1;strokeColor=none;fillColor=none;" vertex="1" parent="Ly05P1Po30x_rFeiM2-j-363">
          <mxGeometry x="105" y="37.5" width="40" height="30" as="geometry" />
        </mxCell>
        <mxCell id="Ly05P1Po30x_rFeiM2-j-372" value="FAZ" style="text;html=1;align=center;verticalAlign=middle;resizable=0;points=[];autosize=1;strokeColor=none;fillColor=none;" vertex="1" parent="Ly05P1Po30x_rFeiM2-j-362">
          <mxGeometry width="50" height="30" as="geometry" />
        </mxCell>
        <mxCell id="Ly05P1Po30x_rFeiM2-j-373" value="FEZ" style="text;html=1;align=center;verticalAlign=middle;resizable=0;points=[];autosize=1;strokeColor=none;fillColor=none;" vertex="1" parent="Ly05P1Po30x_rFeiM2-j-362">
          <mxGeometry x="110" width="40" height="30" as="geometry" />
        </mxCell>
        <mxCell id="Ly05P1Po30x_rFeiM2-j-374" value="SAZ" style="text;html=1;align=center;verticalAlign=middle;resizable=0;points=[];autosize=1;strokeColor=none;fillColor=none;" vertex="1" parent="Ly05P1Po30x_rFeiM2-j-362">
          <mxGeometry y="102" width="50" height="30" as="geometry" />
        </mxCell>
        <mxCell id="Ly05P1Po30x_rFeiM2-j-375" value="SEZ" style="text;html=1;align=center;verticalAlign=middle;resizable=0;points=[];autosize=1;strokeColor=none;fillColor=none;" vertex="1" parent="Ly05P1Po30x_rFeiM2-j-362">
          <mxGeometry x="110" y="102" width="40" height="30" as="geometry" />
        </mxCell>
        <mxCell id="Ly05P1Po30x_rFeiM2-j-376" value="" style="group" vertex="1" connectable="0" parent="1">
          <mxGeometry x="720" y="462" width="150" height="132" as="geometry" />
        </mxCell>
        <mxCell id="Ly05P1Po30x_rFeiM2-j-377" value="" style="group" vertex="1" connectable="0" parent="Ly05P1Po30x_rFeiM2-j-376">
          <mxGeometry y="32" width="150" height="70" as="geometry" />
        </mxCell>
        <mxCell id="Ly05P1Po30x_rFeiM2-j-378" value="" style="rounded=0;whiteSpace=wrap;html=1;" vertex="1" parent="Ly05P1Po30x_rFeiM2-j-377">
          <mxGeometry width="150" height="70" as="geometry" />
        </mxCell>
        <mxCell id="Ly05P1Po30x_rFeiM2-j-379" value="" style="rounded=0;whiteSpace=wrap;html=1;" vertex="1" parent="Ly05P1Po30x_rFeiM2-j-377">
          <mxGeometry width="150" height="35" as="geometry" />
        </mxCell>
        <mxCell id="Ly05P1Po30x_rFeiM2-j-380" value="" style="rounded=0;whiteSpace=wrap;html=1;" vertex="1" parent="Ly05P1Po30x_rFeiM2-j-377">
          <mxGeometry y="35" width="53.225806451612904" height="35" as="geometry" />
        </mxCell>
        <mxCell id="Ly05P1Po30x_rFeiM2-j-381" value="" style="rounded=0;whiteSpace=wrap;html=1;" vertex="1" parent="Ly05P1Po30x_rFeiM2-j-377">
          <mxGeometry x="48.38709677419355" y="35" width="53.225806451612904" height="35" as="geometry" />
        </mxCell>
        <mxCell id="Ly05P1Po30x_rFeiM2-j-382" value="Vorgang" style="text;html=1;align=center;verticalAlign=middle;resizable=0;points=[];autosize=1;strokeColor=none;fillColor=none;" vertex="1" parent="Ly05P1Po30x_rFeiM2-j-377">
          <mxGeometry x="45" y="2.5" width="60" height="30" as="geometry" />
        </mxCell>
        <mxCell id="Ly05P1Po30x_rFeiM2-j-383" value="Dauer" style="text;html=1;align=center;verticalAlign=middle;resizable=0;points=[];autosize=1;strokeColor=none;fillColor=none;" vertex="1" parent="Ly05P1Po30x_rFeiM2-j-377">
          <mxGeometry x="-1.6100000000000136" y="37.5" width="50" height="30" as="geometry" />
        </mxCell>
        <mxCell id="Ly05P1Po30x_rFeiM2-j-384" value="GP" style="text;html=1;align=center;verticalAlign=middle;resizable=0;points=[];autosize=1;strokeColor=none;fillColor=none;" vertex="1" parent="Ly05P1Po30x_rFeiM2-j-377">
          <mxGeometry x="54.99999999999999" y="37.5" width="40" height="30" as="geometry" />
        </mxCell>
        <mxCell id="Ly05P1Po30x_rFeiM2-j-385" value="FP" style="text;html=1;align=center;verticalAlign=middle;resizable=0;points=[];autosize=1;strokeColor=none;fillColor=none;" vertex="1" parent="Ly05P1Po30x_rFeiM2-j-377">
          <mxGeometry x="105" y="37.5" width="40" height="30" as="geometry" />
        </mxCell>
        <mxCell id="Ly05P1Po30x_rFeiM2-j-386" value="FAZ" style="text;html=1;align=center;verticalAlign=middle;resizable=0;points=[];autosize=1;strokeColor=none;fillColor=none;" vertex="1" parent="Ly05P1Po30x_rFeiM2-j-376">
          <mxGeometry width="50" height="30" as="geometry" />
        </mxCell>
        <mxCell id="Ly05P1Po30x_rFeiM2-j-387" value="FEZ" style="text;html=1;align=center;verticalAlign=middle;resizable=0;points=[];autosize=1;strokeColor=none;fillColor=none;" vertex="1" parent="Ly05P1Po30x_rFeiM2-j-376">
          <mxGeometry x="110" width="40" height="30" as="geometry" />
        </mxCell>
        <mxCell id="Ly05P1Po30x_rFeiM2-j-388" value="SAZ" style="text;html=1;align=center;verticalAlign=middle;resizable=0;points=[];autosize=1;strokeColor=none;fillColor=none;" vertex="1" parent="Ly05P1Po30x_rFeiM2-j-376">
          <mxGeometry y="102" width="50" height="30" as="geometry" />
        </mxCell>
        <mxCell id="Ly05P1Po30x_rFeiM2-j-389" value="SEZ" style="text;html=1;align=center;verticalAlign=middle;resizable=0;points=[];autosize=1;strokeColor=none;fillColor=none;" vertex="1" parent="Ly05P1Po30x_rFeiM2-j-376">
          <mxGeometry x="110" y="102" width="40" height="30" as="geometry" />
        </mxCell>
        <mxCell id="Ly05P1Po30x_rFeiM2-j-390" value="" style="group" vertex="1" connectable="0" parent="1">
          <mxGeometry x="720" y="592" width="150" height="132" as="geometry" />
        </mxCell>
        <mxCell id="Ly05P1Po30x_rFeiM2-j-391" value="" style="group" vertex="1" connectable="0" parent="Ly05P1Po30x_rFeiM2-j-390">
          <mxGeometry y="32" width="150" height="70" as="geometry" />
        </mxCell>
        <mxCell id="Ly05P1Po30x_rFeiM2-j-392" value="" style="rounded=0;whiteSpace=wrap;html=1;" vertex="1" parent="Ly05P1Po30x_rFeiM2-j-391">
          <mxGeometry width="150" height="70" as="geometry" />
        </mxCell>
        <mxCell id="Ly05P1Po30x_rFeiM2-j-393" value="" style="rounded=0;whiteSpace=wrap;html=1;" vertex="1" parent="Ly05P1Po30x_rFeiM2-j-391">
          <mxGeometry width="150" height="35" as="geometry" />
        </mxCell>
        <mxCell id="Ly05P1Po30x_rFeiM2-j-394" value="" style="rounded=0;whiteSpace=wrap;html=1;" vertex="1" parent="Ly05P1Po30x_rFeiM2-j-391">
          <mxGeometry y="35" width="53.225806451612904" height="35" as="geometry" />
        </mxCell>
        <mxCell id="Ly05P1Po30x_rFeiM2-j-395" value="" style="rounded=0;whiteSpace=wrap;html=1;" vertex="1" parent="Ly05P1Po30x_rFeiM2-j-391">
          <mxGeometry x="48.38709677419355" y="35" width="53.225806451612904" height="35" as="geometry" />
        </mxCell>
        <mxCell id="Ly05P1Po30x_rFeiM2-j-396" value="Vorgang" style="text;html=1;align=center;verticalAlign=middle;resizable=0;points=[];autosize=1;strokeColor=none;fillColor=none;" vertex="1" parent="Ly05P1Po30x_rFeiM2-j-391">
          <mxGeometry x="45" y="2.5" width="60" height="30" as="geometry" />
        </mxCell>
        <mxCell id="Ly05P1Po30x_rFeiM2-j-397" value="Dauer" style="text;html=1;align=center;verticalAlign=middle;resizable=0;points=[];autosize=1;strokeColor=none;fillColor=none;" vertex="1" parent="Ly05P1Po30x_rFeiM2-j-391">
          <mxGeometry x="-1.6100000000000136" y="37.5" width="50" height="30" as="geometry" />
        </mxCell>
        <mxCell id="Ly05P1Po30x_rFeiM2-j-398" value="GP" style="text;html=1;align=center;verticalAlign=middle;resizable=0;points=[];autosize=1;strokeColor=none;fillColor=none;" vertex="1" parent="Ly05P1Po30x_rFeiM2-j-391">
          <mxGeometry x="54.99999999999999" y="37.5" width="40" height="30" as="geometry" />
        </mxCell>
        <mxCell id="Ly05P1Po30x_rFeiM2-j-399" value="FP" style="text;html=1;align=center;verticalAlign=middle;resizable=0;points=[];autosize=1;strokeColor=none;fillColor=none;" vertex="1" parent="Ly05P1Po30x_rFeiM2-j-391">
          <mxGeometry x="105" y="37.5" width="40" height="30" as="geometry" />
        </mxCell>
        <mxCell id="Ly05P1Po30x_rFeiM2-j-400" value="FAZ" style="text;html=1;align=center;verticalAlign=middle;resizable=0;points=[];autosize=1;strokeColor=none;fillColor=none;" vertex="1" parent="Ly05P1Po30x_rFeiM2-j-390">
          <mxGeometry width="50" height="30" as="geometry" />
        </mxCell>
        <mxCell id="Ly05P1Po30x_rFeiM2-j-401" value="FEZ" style="text;html=1;align=center;verticalAlign=middle;resizable=0;points=[];autosize=1;strokeColor=none;fillColor=none;" vertex="1" parent="Ly05P1Po30x_rFeiM2-j-390">
          <mxGeometry x="110" width="40" height="30" as="geometry" />
        </mxCell>
        <mxCell id="Ly05P1Po30x_rFeiM2-j-402" value="SAZ" style="text;html=1;align=center;verticalAlign=middle;resizable=0;points=[];autosize=1;strokeColor=none;fillColor=none;" vertex="1" parent="Ly05P1Po30x_rFeiM2-j-390">
          <mxGeometry y="102" width="50" height="30" as="geometry" />
        </mxCell>
        <mxCell id="Ly05P1Po30x_rFeiM2-j-403" value="SEZ" style="text;html=1;align=center;verticalAlign=middle;resizable=0;points=[];autosize=1;strokeColor=none;fillColor=none;" vertex="1" parent="Ly05P1Po30x_rFeiM2-j-390">
          <mxGeometry x="110" y="102" width="40" height="30" as="geometry" />
        </mxCell>
        <mxCell id="Ly05P1Po30x_rFeiM2-j-404" value="" style="group" vertex="1" connectable="0" parent="1">
          <mxGeometry x="920" y="590" width="150" height="132" as="geometry" />
        </mxCell>
        <mxCell id="Ly05P1Po30x_rFeiM2-j-405" value="" style="group" vertex="1" connectable="0" parent="Ly05P1Po30x_rFeiM2-j-404">
          <mxGeometry y="32" width="150" height="70" as="geometry" />
        </mxCell>
        <mxCell id="Ly05P1Po30x_rFeiM2-j-406" value="" style="rounded=0;whiteSpace=wrap;html=1;" vertex="1" parent="Ly05P1Po30x_rFeiM2-j-405">
          <mxGeometry width="150" height="70" as="geometry" />
        </mxCell>
        <mxCell id="Ly05P1Po30x_rFeiM2-j-407" value="" style="rounded=0;whiteSpace=wrap;html=1;" vertex="1" parent="Ly05P1Po30x_rFeiM2-j-405">
          <mxGeometry width="150" height="35" as="geometry" />
        </mxCell>
        <mxCell id="Ly05P1Po30x_rFeiM2-j-408" value="" style="rounded=0;whiteSpace=wrap;html=1;" vertex="1" parent="Ly05P1Po30x_rFeiM2-j-405">
          <mxGeometry y="35" width="53.225806451612904" height="35" as="geometry" />
        </mxCell>
        <mxCell id="Ly05P1Po30x_rFeiM2-j-409" value="" style="rounded=0;whiteSpace=wrap;html=1;" vertex="1" parent="Ly05P1Po30x_rFeiM2-j-405">
          <mxGeometry x="48.38709677419355" y="35" width="53.225806451612904" height="35" as="geometry" />
        </mxCell>
        <mxCell id="Ly05P1Po30x_rFeiM2-j-410" value="Vorgang" style="text;html=1;align=center;verticalAlign=middle;resizable=0;points=[];autosize=1;strokeColor=none;fillColor=none;" vertex="1" parent="Ly05P1Po30x_rFeiM2-j-405">
          <mxGeometry x="45" y="2.5" width="60" height="30" as="geometry" />
        </mxCell>
        <mxCell id="Ly05P1Po30x_rFeiM2-j-411" value="Dauer" style="text;html=1;align=center;verticalAlign=middle;resizable=0;points=[];autosize=1;strokeColor=none;fillColor=none;" vertex="1" parent="Ly05P1Po30x_rFeiM2-j-405">
          <mxGeometry x="-1.6100000000000136" y="37.5" width="50" height="30" as="geometry" />
        </mxCell>
        <mxCell id="Ly05P1Po30x_rFeiM2-j-412" value="GP" style="text;html=1;align=center;verticalAlign=middle;resizable=0;points=[];autosize=1;strokeColor=none;fillColor=none;" vertex="1" parent="Ly05P1Po30x_rFeiM2-j-405">
          <mxGeometry x="54.99999999999999" y="37.5" width="40" height="30" as="geometry" />
        </mxCell>
        <mxCell id="Ly05P1Po30x_rFeiM2-j-413" value="FP" style="text;html=1;align=center;verticalAlign=middle;resizable=0;points=[];autosize=1;strokeColor=none;fillColor=none;" vertex="1" parent="Ly05P1Po30x_rFeiM2-j-405">
          <mxGeometry x="105" y="37.5" width="40" height="30" as="geometry" />
        </mxCell>
        <mxCell id="Ly05P1Po30x_rFeiM2-j-414" value="FAZ" style="text;html=1;align=center;verticalAlign=middle;resizable=0;points=[];autosize=1;strokeColor=none;fillColor=none;" vertex="1" parent="Ly05P1Po30x_rFeiM2-j-404">
          <mxGeometry width="50" height="30" as="geometry" />
        </mxCell>
        <mxCell id="Ly05P1Po30x_rFeiM2-j-415" value="FEZ" style="text;html=1;align=center;verticalAlign=middle;resizable=0;points=[];autosize=1;strokeColor=none;fillColor=none;" vertex="1" parent="Ly05P1Po30x_rFeiM2-j-404">
          <mxGeometry x="110" width="40" height="30" as="geometry" />
        </mxCell>
        <mxCell id="Ly05P1Po30x_rFeiM2-j-416" value="SAZ" style="text;html=1;align=center;verticalAlign=middle;resizable=0;points=[];autosize=1;strokeColor=none;fillColor=none;" vertex="1" parent="Ly05P1Po30x_rFeiM2-j-404">
          <mxGeometry y="102" width="50" height="30" as="geometry" />
        </mxCell>
        <mxCell id="Ly05P1Po30x_rFeiM2-j-417" value="SEZ" style="text;html=1;align=center;verticalAlign=middle;resizable=0;points=[];autosize=1;strokeColor=none;fillColor=none;" vertex="1" parent="Ly05P1Po30x_rFeiM2-j-404">
          <mxGeometry x="110" y="102" width="40" height="30" as="geometry" />
        </mxCell>
        <mxCell id="Ly05P1Po30x_rFeiM2-j-418" value="" style="group" vertex="1" connectable="0" parent="1">
          <mxGeometry x="520" y="330" width="150" height="132" as="geometry" />
        </mxCell>
        <mxCell id="Ly05P1Po30x_rFeiM2-j-419" value="" style="group" vertex="1" connectable="0" parent="Ly05P1Po30x_rFeiM2-j-418">
          <mxGeometry y="32" width="150" height="70" as="geometry" />
        </mxCell>
        <mxCell id="Ly05P1Po30x_rFeiM2-j-420" value="" style="rounded=0;whiteSpace=wrap;html=1;" vertex="1" parent="Ly05P1Po30x_rFeiM2-j-419">
          <mxGeometry width="150" height="70" as="geometry" />
        </mxCell>
        <mxCell id="Ly05P1Po30x_rFeiM2-j-421" value="" style="rounded=0;whiteSpace=wrap;html=1;" vertex="1" parent="Ly05P1Po30x_rFeiM2-j-419">
          <mxGeometry width="150" height="35" as="geometry" />
        </mxCell>
        <mxCell id="Ly05P1Po30x_rFeiM2-j-422" value="" style="rounded=0;whiteSpace=wrap;html=1;" vertex="1" parent="Ly05P1Po30x_rFeiM2-j-419">
          <mxGeometry y="35" width="53.225806451612904" height="35" as="geometry" />
        </mxCell>
        <mxCell id="Ly05P1Po30x_rFeiM2-j-423" value="" style="rounded=0;whiteSpace=wrap;html=1;" vertex="1" parent="Ly05P1Po30x_rFeiM2-j-419">
          <mxGeometry x="48.38709677419355" y="35" width="53.225806451612904" height="35" as="geometry" />
        </mxCell>
        <mxCell id="Ly05P1Po30x_rFeiM2-j-424" value="Vorgang" style="text;html=1;align=center;verticalAlign=middle;resizable=0;points=[];autosize=1;strokeColor=none;fillColor=none;" vertex="1" parent="Ly05P1Po30x_rFeiM2-j-419">
          <mxGeometry x="45" y="2.5" width="60" height="30" as="geometry" />
        </mxCell>
        <mxCell id="Ly05P1Po30x_rFeiM2-j-425" value="Dauer" style="text;html=1;align=center;verticalAlign=middle;resizable=0;points=[];autosize=1;strokeColor=none;fillColor=none;" vertex="1" parent="Ly05P1Po30x_rFeiM2-j-419">
          <mxGeometry x="-1.6100000000000136" y="37.5" width="50" height="30" as="geometry" />
        </mxCell>
        <mxCell id="Ly05P1Po30x_rFeiM2-j-426" value="GP" style="text;html=1;align=center;verticalAlign=middle;resizable=0;points=[];autosize=1;strokeColor=none;fillColor=none;" vertex="1" parent="Ly05P1Po30x_rFeiM2-j-419">
          <mxGeometry x="54.99999999999999" y="37.5" width="40" height="30" as="geometry" />
        </mxCell>
        <mxCell id="Ly05P1Po30x_rFeiM2-j-427" value="FP" style="text;html=1;align=center;verticalAlign=middle;resizable=0;points=[];autosize=1;strokeColor=none;fillColor=none;" vertex="1" parent="Ly05P1Po30x_rFeiM2-j-419">
          <mxGeometry x="105" y="37.5" width="40" height="30" as="geometry" />
        </mxCell>
        <mxCell id="Ly05P1Po30x_rFeiM2-j-428" value="FAZ" style="text;html=1;align=center;verticalAlign=middle;resizable=0;points=[];autosize=1;strokeColor=none;fillColor=none;" vertex="1" parent="Ly05P1Po30x_rFeiM2-j-418">
          <mxGeometry width="50" height="30" as="geometry" />
        </mxCell>
        <mxCell id="Ly05P1Po30x_rFeiM2-j-429" value="FEZ" style="text;html=1;align=center;verticalAlign=middle;resizable=0;points=[];autosize=1;strokeColor=none;fillColor=none;" vertex="1" parent="Ly05P1Po30x_rFeiM2-j-418">
          <mxGeometry x="110" width="40" height="30" as="geometry" />
        </mxCell>
        <mxCell id="Ly05P1Po30x_rFeiM2-j-430" value="SAZ" style="text;html=1;align=center;verticalAlign=middle;resizable=0;points=[];autosize=1;strokeColor=none;fillColor=none;" vertex="1" parent="Ly05P1Po30x_rFeiM2-j-418">
          <mxGeometry y="102" width="50" height="30" as="geometry" />
        </mxCell>
        <mxCell id="Ly05P1Po30x_rFeiM2-j-431" value="SEZ" style="text;html=1;align=center;verticalAlign=middle;resizable=0;points=[];autosize=1;strokeColor=none;fillColor=none;" vertex="1" parent="Ly05P1Po30x_rFeiM2-j-418">
          <mxGeometry x="110" y="102" width="40" height="30" as="geometry" />
        </mxCell>
        <mxCell id="Ly05P1Po30x_rFeiM2-j-432" value="" style="group" vertex="1" connectable="0" parent="1">
          <mxGeometry x="1120" y="590" width="150" height="132" as="geometry" />
        </mxCell>
        <mxCell id="Ly05P1Po30x_rFeiM2-j-433" value="" style="group" vertex="1" connectable="0" parent="Ly05P1Po30x_rFeiM2-j-432">
          <mxGeometry y="32" width="150" height="70" as="geometry" />
        </mxCell>
        <mxCell id="Ly05P1Po30x_rFeiM2-j-434" value="" style="rounded=0;whiteSpace=wrap;html=1;" vertex="1" parent="Ly05P1Po30x_rFeiM2-j-433">
          <mxGeometry width="150" height="70" as="geometry" />
        </mxCell>
        <mxCell id="Ly05P1Po30x_rFeiM2-j-435" value="" style="rounded=0;whiteSpace=wrap;html=1;" vertex="1" parent="Ly05P1Po30x_rFeiM2-j-433">
          <mxGeometry width="150" height="35" as="geometry" />
        </mxCell>
        <mxCell id="Ly05P1Po30x_rFeiM2-j-436" value="" style="rounded=0;whiteSpace=wrap;html=1;" vertex="1" parent="Ly05P1Po30x_rFeiM2-j-433">
          <mxGeometry y="35" width="53.225806451612904" height="35" as="geometry" />
        </mxCell>
        <mxCell id="Ly05P1Po30x_rFeiM2-j-437" value="" style="rounded=0;whiteSpace=wrap;html=1;" vertex="1" parent="Ly05P1Po30x_rFeiM2-j-433">
          <mxGeometry x="48.38709677419355" y="35" width="53.225806451612904" height="35" as="geometry" />
        </mxCell>
        <mxCell id="Ly05P1Po30x_rFeiM2-j-438" value="Vorgang" style="text;html=1;align=center;verticalAlign=middle;resizable=0;points=[];autosize=1;strokeColor=none;fillColor=none;" vertex="1" parent="Ly05P1Po30x_rFeiM2-j-433">
          <mxGeometry x="45" y="2.5" width="60" height="30" as="geometry" />
        </mxCell>
        <mxCell id="Ly05P1Po30x_rFeiM2-j-439" value="Dauer" style="text;html=1;align=center;verticalAlign=middle;resizable=0;points=[];autosize=1;strokeColor=none;fillColor=none;" vertex="1" parent="Ly05P1Po30x_rFeiM2-j-433">
          <mxGeometry x="-1.6100000000000136" y="37.5" width="50" height="30" as="geometry" />
        </mxCell>
        <mxCell id="Ly05P1Po30x_rFeiM2-j-440" value="GP" style="text;html=1;align=center;verticalAlign=middle;resizable=0;points=[];autosize=1;strokeColor=none;fillColor=none;" vertex="1" parent="Ly05P1Po30x_rFeiM2-j-433">
          <mxGeometry x="54.99999999999999" y="37.5" width="40" height="30" as="geometry" />
        </mxCell>
        <mxCell id="Ly05P1Po30x_rFeiM2-j-441" value="FP" style="text;html=1;align=center;verticalAlign=middle;resizable=0;points=[];autosize=1;strokeColor=none;fillColor=none;" vertex="1" parent="Ly05P1Po30x_rFeiM2-j-433">
          <mxGeometry x="105" y="37.5" width="40" height="30" as="geometry" />
        </mxCell>
        <mxCell id="Ly05P1Po30x_rFeiM2-j-442" value="FAZ" style="text;html=1;align=center;verticalAlign=middle;resizable=0;points=[];autosize=1;strokeColor=none;fillColor=none;" vertex="1" parent="Ly05P1Po30x_rFeiM2-j-432">
          <mxGeometry width="50" height="30" as="geometry" />
        </mxCell>
        <mxCell id="Ly05P1Po30x_rFeiM2-j-443" value="FEZ" style="text;html=1;align=center;verticalAlign=middle;resizable=0;points=[];autosize=1;strokeColor=none;fillColor=none;" vertex="1" parent="Ly05P1Po30x_rFeiM2-j-432">
          <mxGeometry x="110" width="40" height="30" as="geometry" />
        </mxCell>
        <mxCell id="Ly05P1Po30x_rFeiM2-j-444" value="SAZ" style="text;html=1;align=center;verticalAlign=middle;resizable=0;points=[];autosize=1;strokeColor=none;fillColor=none;" vertex="1" parent="Ly05P1Po30x_rFeiM2-j-432">
          <mxGeometry y="102" width="50" height="30" as="geometry" />
        </mxCell>
        <mxCell id="Ly05P1Po30x_rFeiM2-j-445" value="SEZ" style="text;html=1;align=center;verticalAlign=middle;resizable=0;points=[];autosize=1;strokeColor=none;fillColor=none;" vertex="1" parent="Ly05P1Po30x_rFeiM2-j-432">
          <mxGeometry x="110" y="102" width="40" height="30" as="geometry" />
        </mxCell>
        <mxCell id="Ly05P1Po30x_rFeiM2-j-451" value="" style="group" vertex="1" connectable="0" parent="1">
          <mxGeometry x="1320" y="590" width="150" height="132" as="geometry" />
        </mxCell>
        <mxCell id="Ly05P1Po30x_rFeiM2-j-452" value="" style="group" vertex="1" connectable="0" parent="Ly05P1Po30x_rFeiM2-j-451">
          <mxGeometry y="32" width="150" height="70" as="geometry" />
        </mxCell>
        <mxCell id="Ly05P1Po30x_rFeiM2-j-453" value="" style="rounded=0;whiteSpace=wrap;html=1;" vertex="1" parent="Ly05P1Po30x_rFeiM2-j-452">
          <mxGeometry width="150" height="70" as="geometry" />
        </mxCell>
        <mxCell id="Ly05P1Po30x_rFeiM2-j-454" value="" style="rounded=0;whiteSpace=wrap;html=1;" vertex="1" parent="Ly05P1Po30x_rFeiM2-j-452">
          <mxGeometry width="150" height="35" as="geometry" />
        </mxCell>
        <mxCell id="Ly05P1Po30x_rFeiM2-j-455" value="" style="rounded=0;whiteSpace=wrap;html=1;" vertex="1" parent="Ly05P1Po30x_rFeiM2-j-452">
          <mxGeometry y="35" width="53.225806451612904" height="35" as="geometry" />
        </mxCell>
        <mxCell id="Ly05P1Po30x_rFeiM2-j-456" value="" style="rounded=0;whiteSpace=wrap;html=1;" vertex="1" parent="Ly05P1Po30x_rFeiM2-j-452">
          <mxGeometry x="48.38709677419355" y="35" width="53.225806451612904" height="35" as="geometry" />
        </mxCell>
        <mxCell id="Ly05P1Po30x_rFeiM2-j-457" value="Vorgang" style="text;html=1;align=center;verticalAlign=middle;resizable=0;points=[];autosize=1;strokeColor=none;fillColor=none;" vertex="1" parent="Ly05P1Po30x_rFeiM2-j-452">
          <mxGeometry x="45" y="2.5" width="60" height="30" as="geometry" />
        </mxCell>
        <mxCell id="Ly05P1Po30x_rFeiM2-j-458" value="Dauer" style="text;html=1;align=center;verticalAlign=middle;resizable=0;points=[];autosize=1;strokeColor=none;fillColor=none;" vertex="1" parent="Ly05P1Po30x_rFeiM2-j-452">
          <mxGeometry x="-1.6100000000000136" y="37.5" width="50" height="30" as="geometry" />
        </mxCell>
        <mxCell id="Ly05P1Po30x_rFeiM2-j-459" value="GP" style="text;html=1;align=center;verticalAlign=middle;resizable=0;points=[];autosize=1;strokeColor=none;fillColor=none;" vertex="1" parent="Ly05P1Po30x_rFeiM2-j-452">
          <mxGeometry x="54.99999999999999" y="37.5" width="40" height="30" as="geometry" />
        </mxCell>
        <mxCell id="Ly05P1Po30x_rFeiM2-j-460" value="FP" style="text;html=1;align=center;verticalAlign=middle;resizable=0;points=[];autosize=1;strokeColor=none;fillColor=none;" vertex="1" parent="Ly05P1Po30x_rFeiM2-j-452">
          <mxGeometry x="105" y="37.5" width="40" height="30" as="geometry" />
        </mxCell>
        <mxCell id="Ly05P1Po30x_rFeiM2-j-461" value="FAZ" style="text;html=1;align=center;verticalAlign=middle;resizable=0;points=[];autosize=1;strokeColor=none;fillColor=none;" vertex="1" parent="Ly05P1Po30x_rFeiM2-j-451">
          <mxGeometry width="50" height="30" as="geometry" />
        </mxCell>
        <mxCell id="Ly05P1Po30x_rFeiM2-j-462" value="FEZ" style="text;html=1;align=center;verticalAlign=middle;resizable=0;points=[];autosize=1;strokeColor=none;fillColor=none;" vertex="1" parent="Ly05P1Po30x_rFeiM2-j-451">
          <mxGeometry x="110" width="40" height="30" as="geometry" />
        </mxCell>
        <mxCell id="Ly05P1Po30x_rFeiM2-j-463" value="SAZ" style="text;html=1;align=center;verticalAlign=middle;resizable=0;points=[];autosize=1;strokeColor=none;fillColor=none;" vertex="1" parent="Ly05P1Po30x_rFeiM2-j-451">
          <mxGeometry y="102" width="50" height="30" as="geometry" />
        </mxCell>
        <mxCell id="Ly05P1Po30x_rFeiM2-j-464" value="SEZ" style="text;html=1;align=center;verticalAlign=middle;resizable=0;points=[];autosize=1;strokeColor=none;fillColor=none;" vertex="1" parent="Ly05P1Po30x_rFeiM2-j-451">
          <mxGeometry x="110" y="102" width="40" height="30" as="geometry" />
        </mxCell>
        <mxCell id="Ly05P1Po30x_rFeiM2-j-466" value="" style="strokeWidth=2;html=1;shape=mxgraph.flowchart.annotation_2;align=left;labelPosition=right;pointerEvents=1;" vertex="1" parent="1">
          <mxGeometry x="490" y="390" width="30" height="410" as="geometry" />
        </mxCell>
        <mxCell id="Ly05P1Po30x_rFeiM2-j-467" style="edgeStyle=orthogonalEdgeStyle;rounded=0;orthogonalLoop=1;jettySize=auto;html=1;exitX=0;exitY=0.5;exitDx=0;exitDy=0;exitPerimeter=0;entryX=0.999;entryY=0.578;entryDx=0;entryDy=0;entryPerimeter=0;" edge="1" parent="1" source="Ly05P1Po30x_rFeiM2-j-466" target="Ly05P1Po30x_rFeiM2-j-307">
          <mxGeometry relative="1" as="geometry" />
        </mxCell>
      </root>
    </mxGraphModel>
  </diagram>
</mxfile>
